<svg width="16" height="16" viewBox="0 0 16 16" fill="none" xmlns="http://www.w3.org/2000/svg">
<g id="Icon / Quotes">
<path id="Vector" d="M9.57332 9.48659C9.12766 9.8459 8.57245 10.0418 7.99998 10.0418C7.42752 10.0418 6.8723 9.8459 6.42665 9.48659C6.2905 9.37343 6.11498 9.31898 5.9387 9.33524C5.76242 9.35149 5.59981 9.43711 5.48665 9.57325C5.37349 9.7094 5.31905 9.88492 5.3353 10.0612C5.35156 10.2375 5.43717 10.4001 5.57332 10.5133C6.25421 11.0817 7.11302 11.393 7.99998 11.393C8.88694 11.393 9.74576 11.0817 10.4267 10.5133C10.5628 10.4001 10.6484 10.2375 10.6647 10.0612C10.6809 9.88492 10.6265 9.7094 10.5133 9.57325C10.4573 9.50584 10.3885 9.45012 10.311 9.40929C10.2334 9.36845 10.1486 9.34329 10.0613 9.33524C9.88498 9.31899 9.70946 9.37343 9.57332 9.48659ZM6.13998 7.02659C6.26489 7.15075 6.43386 7.22045 6.60998 7.22045C6.78611 7.22045 6.95507 7.15075 7.07998 7.02659C7.20415 6.90168 7.27384 6.73271 7.27384 6.55659C7.27384 6.38046 7.20415 6.21149 7.07998 6.08659C6.69846 5.72458 6.19258 5.52277 5.66665 5.52277C5.14072 5.52277 4.63484 5.72458 4.25332 6.08659C4.18353 6.14635 4.12685 6.2199 4.08683 6.30261C4.04682 6.38532 4.02433 6.4754 4.02078 6.56722C4.01724 6.65903 4.03271 6.75058 4.06622 6.83613C4.09974 6.92168 4.15058 6.99938 4.21555 7.06435C4.28052 7.12932 4.35822 7.18016 4.44377 7.21368C4.52932 7.24719 4.62087 7.26266 4.71268 7.25912C4.8045 7.25557 4.89459 7.23308 4.9773 7.19307C5.06001 7.15305 5.13355 7.09637 5.19332 7.02659C5.25529 6.9641 5.32903 6.9145 5.41026 6.88066C5.4915 6.84681 5.57864 6.82939 5.66665 6.82939C5.75466 6.82939 5.84179 6.84681 5.92303 6.88066C6.00427 6.9145 6.07801 6.9641 6.13998 7.02659ZM11.7467 6.08659C11.3651 5.72458 10.8592 5.52277 10.3333 5.52277C9.80738 5.52277 9.3015 5.72458 8.91998 6.08659C8.81077 6.21412 8.75369 6.37817 8.76018 6.54595C8.76666 6.71374 8.83621 6.8729 8.95494 6.99163C9.07367 7.11036 9.23283 7.17991 9.40061 7.18639C9.5684 7.19287 9.73245 7.1358 9.85998 7.02659C9.92196 6.9641 9.99569 6.9145 10.0769 6.88066C10.1582 6.84681 10.2453 6.82939 10.3333 6.82939C10.4213 6.82939 10.5085 6.84681 10.5897 6.88066C10.6709 6.9145 10.7447 6.9641 10.8066 7.02659C10.9316 7.15075 11.1005 7.22045 11.2767 7.22045C11.4528 7.22045 11.6217 7.15075 11.7467 7.02659C11.8708 6.90168 11.9405 6.73271 11.9405 6.55659C11.9405 6.38046 11.8708 6.21149 11.7467 6.08659ZM7.99998 1.33325C6.68144 1.33325 5.39251 1.72425 4.29618 2.45679C3.19985 3.18933 2.34537 4.23052 1.84079 5.4487C1.3362 6.66687 1.20418 8.00731 1.46141 9.30052C1.71865 10.5937 2.35359 11.7816 3.28594 12.714C4.21829 13.6463 5.40617 14.2813 6.69938 14.5385C7.99259 14.7957 9.33303 14.6637 10.5512 14.1591C11.7694 13.6545 12.8106 12.8 13.5431 11.7037C14.2757 10.6074 14.6666 9.31846 14.6666 7.99992C14.6666 7.12444 14.4942 6.25753 14.1592 5.4487C13.8241 4.63986 13.3331 3.90493 12.714 3.28587C12.095 2.66682 11.36 2.17575 10.5512 1.84072C9.74237 1.50569 8.87546 1.33325 7.99998 1.33325ZM7.99998 13.3333C6.94515 13.3333 5.914 13.0205 5.03694 12.4344C4.15988 11.8484 3.47629 11.0154 3.07263 10.0409C2.66896 9.06636 2.56334 7.994 2.76913 6.95944C2.97492 5.92487 3.48287 4.97456 4.22875 4.22868C4.97463 3.4828 5.92494 2.97485 6.9595 2.76906C7.99407 2.56328 9.06642 2.66889 10.041 3.07256C11.0155 3.47623 11.8485 4.15982 12.4345 5.03688C13.0205 5.91394 13.3333 6.94509 13.3333 7.99992C13.3333 9.41441 12.7714 10.771 11.7712 11.7712C10.771 12.7713 9.41447 13.3333 7.99998 13.3333Z" fill="#F9FAFB"/>
</g>
</svg>
